<?xml version="1.0" standalone="no"?>
<!DOCTYPE svg PUBLIC "-//W3C//DTD SVG 20010904//EN"
 "http://www.w3.org/TR/2001/REC-SVG-20010904/DTD/svg10.dtd">
<svg version="1.0" xmlns="http://www.w3.org/2000/svg"
 width="821.000000pt" height="821.000000pt" viewBox="0 0 821.000000 821.000000"
 preserveAspectRatio="xMidYMid meet">
<metadata>
Created by potrace 1.14, written by Peter Selinger 2001-2017
</metadata>
<g transform="translate(0.000000,821.000000) scale(0.100000,-0.100000)"
fill="#000000" stroke="none">
<path d="M3938 8205 c-2 -2 -39 -6 -83 -9 -142 -11 -232 -25 -460 -70 -11 -2
-40 -9 -65 -16 -25 -7 -54 -14 -65 -16 -36 -7 -190 -55 -207 -64 -10 -6 -24
-10 -32 -10 -48 0 -409 -169 -576 -270 -125 -75 -333 -222 -370 -260 -3 -3
-36 -32 -75 -65 -123 -106 -311 -302 -407 -425 -85 -110 -109 -143 -159 -215
-113 -162 -299 -501 -299 -544 0 -6 -4 -11 -10 -11 -5 0 -9 -3 -8 -7 2 -7 -27
-91 -49 -143 -3 -8 -7 -17 -8 -20 -1 -3 -17 -57 -37 -120 -31 -100 -43 -141
-53 -185 -2 -5 -5 -23 -8 -40 -3 -16 -12 -61 -20 -100 -9 -38 -18 -95 -22
-125 -4 -30 -8 -57 -10 -60 -11 -18 -19 -221 -19 -430 1 -256 6 -337 29 -480
3 -19 7 -51 10 -70 3 -19 7 -47 10 -62 3 -16 7 -38 9 -50 12 -67 58 -254 67
-270 5 -10 7 -18 4 -18 -3 0 -1 -9 5 -21 7 -11 14 -33 16 -47 3 -15 9 -31 15
-37 5 -5 9 -17 9 -26 0 -47 173 -423 248 -539 9 -14 17 -27 17 -30 0 -3 19
-33 43 -67 23 -34 42 -65 42 -68 0 -3 11 -18 25 -33 14 -15 25 -31 25 -35 0
-5 6 -14 12 -22 24 -25 48 -55 48 -61 0 -3 6 -11 12 -19 7 -7 29 -32 48 -56
156 -194 329 -365 548 -541 50 -40 245 -173 304 -207 129 -73 163 -92 243
-130 50 -24 98 -47 108 -52 43 -23 270 -107 338 -126 87 -25 213 12 282 81
128 128 129 321 3 438 -52 49 -100 76 -201 113 -44 16 -100 38 -125 49 -25 11
-48 20 -52 21 -4 0 -13 6 -20 13 -6 6 -17 12 -24 12 -31 0 -305 161 -431 254
-208 154 -404 351 -554 556 -76 105 -99 138 -99 144 0 3 -17 32 -37 63 -53 83
-127 236 -180 371 -25 64 -46 121 -47 127 -1 5 -4 15 -8 20 -3 6 -9 26 -13 45
-4 19 -10 39 -13 45 -3 5 -7 16 -8 25 -3 18 -9 45 -29 125 -8 33 -17 74 -19
90 -2 17 -7 46 -10 65 -27 148 -38 459 -21 615 4 39 8 81 10 95 2 23 15 117
21 150 4 24 14 73 20 100 3 14 7 32 9 40 2 8 8 35 15 60 7 25 14 52 15 60 2 8
4 16 5 18 2 1 4 7 5 12 1 6 3 11 5 13 1 1 3 10 5 19 7 35 60 183 68 186 4 2 7
11 7 21 0 9 7 27 16 39 8 12 13 22 9 22 -12 0 129 258 199 363 94 142 226 307
313 391 188 182 318 285 508 403 68 42 294 158 360 185 68 27 210 79 228 83
12 2 74 19 137 36 63 17 129 32 145 35 58 8 90 13 112 18 132 29 571 28 743
-1 34 -5 48 -8 100 -18 300 -58 661 -203 909 -366 40 -27 75 -49 77 -49 4 0
38 -28 59 -47 8 -7 17 -13 20 -13 14 0 222 -182 300 -262 122 -126 280 -326
331 -418 10 -19 21 -37 24 -40 18 -16 130 -228 130 -244 0 -7 6 -18 13 -24 6
-7 12 -16 13 -20 1 -8 19 -52 39 -97 16 -34 84 -234 91 -268 9 -38 12 -52 14
-52 2 0 6 -17 14 -60 3 -16 12 -53 19 -82 9 -34 10 -57 4 -69 -7 -12 -6 -15 2
-10 7 5 11 -1 12 -16 0 -13 2 -32 5 -43 10 -51 26 -232 24 -285 0 -8 1 -40 1
-70 1 -66 2 -54 -5 -166 -3 -50 -7 -104 -10 -120 -3 -16 -8 -53 -11 -83 -4
-30 -9 -63 -11 -75 -2 -12 -7 -37 -10 -56 -3 -19 -10 -42 -15 -51 -4 -9 -6
-19 -3 -21 7 -7 -77 -292 -87 -296 -5 -2 -7 -7 -4 -12 5 -8 -5 -35 -42 -118
-9 -20 -17 -39 -17 -42 -4 -19 -33 -80 -48 -103 -11 -15 -17 -27 -14 -27 2 0
-16 -37 -41 -82 -26 -46 -51 -93 -57 -105 -6 -13 -14 -23 -18 -23 -5 0 -8 -5
-8 -11 0 -13 -102 -157 -174 -246 -48 -59 -232 -244 -286 -288 -111 -90 -308
-225 -328 -225 -6 0 -12 -3 -14 -7 -9 -22 -278 -145 -365 -167 -174 -44 -318
-9 -430 106 -59 61 -64 67 -85 103 -77 131 -139 309 -163 471 -4 22 -8 50 -11
64 -10 58 -25 258 -27 374 -2 72 1 89 13 91 8 2 33 5 55 9 160 24 311 82 451
171 58 37 200 172 242 230 44 60 71 105 64 105 -4 0 -2 4 3 8 15 10 81 166 90
212 1 3 4 19 8 35 14 58 18 81 24 145 9 84 10 1046 2 1055 -8 8 -2499 9 -2507
1 -7 -8 -7 -905 1 -912 3 -4 2 -14 -3 -24 -5 -10 -7 -20 -4 -23 4 -3 8 -37 10
-74 2 -37 6 -79 9 -93 3 -14 8 -36 11 -50 16 -82 75 -226 135 -329 36 -62 129
-171 185 -216 27 -22 57 -47 66 -55 80 -73 399 -195 501 -192 9 1 17 -5 17
-11 0 -47 11 -329 14 -357 2 -19 7 -64 10 -100 4 -36 9 -74 11 -85 2 -11 7
-38 10 -59 3 -21 7 -48 10 -60 3 -12 7 -32 9 -46 7 -37 13 -60 26 -110 7 -25
13 -49 15 -55 1 -5 5 -17 8 -25 3 -8 13 -40 22 -70 9 -30 21 -64 26 -75 9 -20
30 -76 31 -85 6 -28 141 -260 173 -296 104 -119 141 -155 206 -205 76 -58 242
-149 271 -149 8 0 18 -3 22 -7 3 -4 12 -8 19 -9 7 -1 39 -10 72 -18 33 -9 83
-20 110 -23 60 -8 248 -7 290 1 17 3 57 11 90 17 172 31 481 163 690 294 207
130 398 293 545 465 25 28 57 65 71 81 14 15 43 51 65 78 21 28 42 51 46 51 4
0 8 5 8 10 0 6 26 45 59 88 100 133 271 407 271 436 0 8 4 16 9 18 16 6 175
370 186 428 2 8 4 15 5 15 1 0 3 7 5 15 2 8 13 44 24 79 12 35 19 66 16 69 -3
3 0 11 5 18 6 6 12 25 15 40 2 16 10 58 19 94 8 36 17 81 20 100 3 19 8 46 10
60 43 236 37 686 -11 940 -2 14 -4 33 -4 43 0 9 -3 17 -7 17 -4 0 -8 19 -10
43 -3 46 -6 65 -15 87 -6 14 -11 37 -24 105 -3 17 -9 38 -14 48 -5 9 -8 17 -5
17 6 0 -50 185 -65 212 -7 13 -11 24 -10 26 3 2 -14 55 -36 112 -4 8 -7 17 -8
20 -23 67 -96 229 -152 338 -55 108 -223 378 -243 392 -4 3 -9 10 -11 16 -5
13 -63 86 -96 121 -13 13 -23 28 -23 32 0 12 -298 312 -365 367 -33 27 -62 52
-65 55 -13 15 -242 179 -300 215 -177 110 -320 182 -575 289 -29 12 -160 57
-180 61 -5 1 -48 14 -95 29 -47 15 -94 28 -105 30 -11 2 -31 6 -45 9 -89 20
-129 28 -155 31 -16 2 -30 4 -30 5 0 3 -30 8 -91 14 -32 4 -72 9 -89 11 -85
13 -157 17 -327 20 -103 2 -188 2 -190 0z"/>
<path d="M3480 6953 c0 -5 -15 -8 -32 -7 -76 6 -140 -31 -172 -100 -17 -36
-18 -72 -18 -391 0 -194 3 -361 6 -372 6 -20 14 -20 229 -19 l222 1 0 370 c0
204 -4 384 -9 400 -19 63 -86 109 -166 114 -25 2 -48 5 -52 8 -5 2 -8 0 -8 -4z"/>
<path d="M4600 6936 c-19 -6 -47 -19 -62 -29 -28 -20 -62 -80 -55 -100 2 -7 0
-20 -4 -29 -6 -10 -5 -19 1 -23 6 -3 6 -15 0 -30 -6 -15 -6 -27 0 -30 6 -3 6
-15 0 -30 -6 -15 -6 -27 0 -30 6 -3 6 -15 0 -30 -6 -15 -6 -27 0 -30 6 -3 6
-15 0 -30 -6 -15 -6 -27 0 -30 6 -3 6 -15 0 -30 -6 -15 -6 -27 0 -30 6 -3 6
-15 0 -30 -6 -15 -6 -27 0 -30 6 -3 6 -15 0 -30 -5 -14 -5 -27 0 -30 5 -3 5
-18 0 -35 -5 -17 -5 -30 0 -30 4 0 5 -15 1 -33 -5 -18 -5 -41 -1 -52 4 -11 4
-30 -1 -41 -4 -12 -5 -25 -1 -29 3 -3 7 -16 7 -28 0 -22 0 -22 222 -22 192 -1
222 1 225 15 3 13 2 686 -1 747 -1 31 -49 83 -95 104 -45 20 -179 23 -236 5z"/>
<path d="M5993 1653 c-75 -30 -106 -128 -63 -198 57 -92 217 -84 269 14 17 31
13 93 -9 128 -36 59 -127 85 -197 56z"/>
<path d="M2443 1567 c-3 -5 -3 -11 0 -13 3 -3 1 -19 -3 -35 -5 -16 -5 -29 0
-29 5 0 5 -12 1 -27 -4 -16 -5 -39 -1 -53 4 -14 3 -37 -1 -52 -4 -16 -4 -28 1
-28 5 0 5 -12 1 -27 -4 -16 -5 -39 -1 -53 4 -14 3 -37 -1 -52 -4 -16 -4 -28 1
-28 5 0 5 -12 1 -27 -4 -16 -5 -39 -1 -53 4 -14 3 -37 -1 -52 -4 -16 -4 -28 1
-28 5 0 5 -12 1 -27 -4 -16 -5 -39 -1 -53 4 -14 3 -37 -1 -52 -4 -16 -4 -28 1
-28 5 0 5 -12 1 -27 -4 -16 -5 -39 -1 -53 4 -14 3 -37 -1 -52 -4 -16 -4 -28 1
-28 5 0 5 -12 1 -27 -4 -16 -5 -39 -1 -53 4 -14 4 -36 0 -50 -3 -14 -3 -41 0
-60 l5 -35 115 0 c63 -1 120 1 126 3 8 2 11 166 11 555 l0 552 -124 0 c-69 0
-127 -3 -130 -8z"/>
<path d="M1502 992 l3 -527 122 0 c76 -1 124 3 126 10 3 5 4 88 3 183 0 96 2
176 7 179 4 2 63 6 130 8 75 2 142 9 174 19 146 46 237 167 235 314 -2 173
-95 286 -267 327 -31 7 -143 12 -293 13 l-242 0 2 -526z m475 301 c40 -19 63
-62 63 -120 0 -90 -48 -123 -180 -126 -73 -2 -93 1 -99 13 -8 18 -7 232 1 245
10 16 176 7 215 -12z"/>
<path d="M4208 1315 c-2 -2 -26 -5 -54 -8 -162 -17 -290 -166 -311 -362 -6
-57 -6 -55 1 -116 18 -160 88 -276 204 -338 122 -65 292 -41 384 54 l36 38 -1
-87 c-1 -47 -5 -86 -9 -86 -4 0 -5 -6 -2 -14 9 -23 -38 -84 -79 -102 -81 -37
-203 -9 -240 55 l-18 31 -120 -1 c-66 -1 -122 -5 -124 -9 -7 -12 32 -118 57
-152 54 -76 153 -138 248 -153 279 -46 474 59 531 287 6 26 9 54 6 62 -4 9 -3
18 2 20 8 6 6 90 -3 105 -4 5 -3 12 1 14 10 6 10 288 0 303 -3 6 -3 14 0 18 4
4 8 101 8 217 l0 209 -50 1 c-27 0 -81 1 -118 2 -38 1 -74 -1 -79 -4 -6 -4
-11 -30 -11 -59 l0 -51 -36 34 c-50 49 -102 75 -166 85 -30 5 -56 8 -57 7z
m142 -239 c103 -41 147 -184 92 -297 -30 -61 -73 -92 -139 -97 -119 -10 -192
63 -199 195 -7 150 118 250 246 199z"/>
<path d="M5153 1305 c-140 -33 -243 -141 -279 -295 -11 -49 -12 -198 -1 -255
22 -111 113 -226 215 -272 45 -20 74 -26 137 -26 94 -1 166 26 227 87 l37 36
-3 -94 c-4 -92 -12 -123 -45 -160 -66 -76 -234 -61 -285 26 l-18 29 -121 -3
-122 -3 3 -30 c5 -48 50 -132 95 -175 82 -81 211 -121 367 -114 118 5 214 47
284 125 32 34 71 102 64 111 -1 2 4 14 11 27 7 13 15 42 18 65 4 33 8 801 4
896 -1 24 -3 25 -64 23 -34 -1 -91 -2 -128 -2 l-65 -1 3 -57 2 -57 -35 36
c-70 72 -196 107 -301 83z m256 -253 c53 -42 75 -93 74 -174 -1 -83 -31 -142
-91 -176 -105 -59 -229 -5 -260 113 -3 11 -5 50 -5 86 0 67 18 109 63 147 60
51 158 53 219 4z"/>
<path d="M2955 1300 l-80 -5 -1 -270 c0 -292 6 -342 53 -422 61 -104 166 -154
303 -142 80 7 132 30 193 87 l27 26 0 -55 0 -54 129 0 129 0 0 417 -1 417 -56
3 c-31 2 -89 2 -128 0 l-73 -4 0 -249 c0 -137 0 -252 -1 -256 0 -5 -10 -25
-22 -45 -54 -97 -204 -102 -267 -11 -25 36 -25 38 -28 299 l-3 262 -47 4 c-26
1 -83 1 -127 -2z"/>
<path d="M6003 1302 l-73 -3 0 -417 0 -418 123 2 c67 1 125 2 128 3 3 0 6 187
6 415 l0 414 -56 4 c-31 2 -89 2 -128 0z"/>
<path d="M6423 1302 l-53 -3 0 -418 0 -417 128 1 127 0 1 245 c1 250 6 294 42
335 63 74 207 60 257 -25 20 -36 24 -100 25 -476 l0 -80 120 1 c81 0 123 4
128 12 4 6 6 29 4 50 -1 21 -3 43 -2 48 5 100 3 235 -3 235 -5 0 -5 5 -1 12
11 18 11 108 0 108 -6 0 -6 4 0 10 16 16 -3 137 -31 195 -13 28 -37 65 -54 83
-104 111 -313 122 -433 21 -26 -21 -48 -39 -50 -39 -2 0 -3 22 -2 49 l3 50
-77 3 c-42 2 -101 2 -129 0z"/>
</g>
</svg>
